<?xml version="1.0" encoding="utf-8"?>
<!-- Generator: Adobe Illustrator 26.0.1, SVG Export Plug-In . SVG Version: 6.00 Build 0)  -->
<svg version="1.1" id="Layer_1" xmlns="http://www.w3.org/2000/svg" xmlns:xlink="http://www.w3.org/1999/xlink" x="0px" y="0px"
	 viewBox="0 0 138 28" style="enable-background:new 0 0 138 28;" xml:space="preserve">
<style type="text/css">
	.st0{fill:#FFFFFF;}
	.st1{fill:#FFFF00;}
</style>
<path class="st0" d="M27.3,17.1c0,0.9-0.1,1.8-0.5,2.6c-0.1,0.2-0.2,0.5-0.3,0.7c-0.3,0.5-0.7,1-1.1,1.3c-0.1,0.1-0.1,0.1-0.2,0.2
	c-0.7,0.6-1.4,0.9-2.1,1.1c-0.8,0.2-1.8,0.3-3.1,0.3h-1.2v-5.5H20c0.7,0,1.1-0.1,1.4-0.2c0.2-0.1,0.3-0.3,0.4-0.6c0-0.1,0-0.2,0-0.3
	c0-0.7-0.6-1-1.6-1H19V9.9c1.2,0,1.8-0.5,1.8-1.2c0-0.8-0.6-1.1-1.6-1.1h-1.5v15.9h-6.4V1.6h7.9c4.6,0,7,1.8,7,5.5
	c0,1.8-0.8,3.4-2.4,4.5C26.2,12.7,27.3,14.5,27.3,17.1z"/>
<path class="st0" d="M35.8,9.6c1.9,0,3.5,0.7,4.8,2c1.3,1.4,2,3,2,4.9s-0.7,3.6-2,4.9s-3,2-4.9,2s-3.6-0.7-4.9-2c-1.4-1.4-2-3-2-4.9
	s0.7-3.6,2-4.9C32.1,10.3,33.8,9.6,35.8,9.6z M35.6,13.5c-0.8,0-1.5,0.3-2.1,0.9c-0.6,0.6-0.9,1.3-0.9,2.1c0,0.8,0.3,1.6,0.9,2.1
	c0.6,0.6,1.3,0.9,2.1,0.9s1.5-0.3,2.1-0.9s0.8-1.3,0.8-2.2c0-0.8-0.3-1.6-0.8-2.2C37.1,13.8,36.4,13.5,35.6,13.5z"/>
<path class="st0" d="M48.3,9.9v13.2h-3.9V9.9H48.3z"/>
<path class="st1" d="M59.9,16.7l4.1,0.1c-0.3,2.1-1,3.8-2.2,4.9c-1.2,1.2-2.8,1.7-4.7,1.7c-2,0-3.6-0.7-4.9-2c-1.3-1.3-2-3-2-4.9
	c0-2,0.7-3.6,2-5c1.4-1.3,3-2,5-2c1.9,0,3.6,0.7,4.9,2c0.9,0.9,1.5,2.2,1.9,3.8l-4.2,0.3c-0.5-1.4-1.4-2.2-2.7-2.2
	c-0.8,0-1.5,0.3-2.1,0.9c-0.5,0.6-0.8,1.3-0.8,2.2s0.3,1.6,0.8,2.1c0.5,0.6,1.2,0.8,2,0.8s1.5-0.2,2-0.7
	C59.5,18.3,59.8,17.6,59.9,16.7z"/>
<path class="st1" d="M72.1,9.6c1.9,0,3.5,0.7,4.8,2c1.3,1.4,2,3,2,4.9s-0.7,3.6-2,4.9s-3,2-4.9,2s-3.6-0.7-4.9-2c-1.4-1.4-2-3-2-4.9
	s0.7-3.6,2-4.9C68.5,10.3,70.2,9.6,72.1,9.6z M72,13.5c-0.8,0-1.5,0.3-2.1,0.9C69.3,15,69,15.7,69,16.5c0,0.8,0.3,1.6,0.9,2.1
	c0.6,0.6,1.3,0.9,2.1,0.9c0.8,0,1.5-0.3,2.1-0.9s0.8-1.3,0.8-2.2c0-0.8-0.3-1.6-0.8-2.2C73.5,13.8,72.8,13.5,72,13.5z"/>
<path class="st1" d="M84.7,13.5v9.7h-3.9V9.9h5c1.5,0,2.7,0.4,3.6,1.1c0.9,0.9,1.4,1.9,1.4,3.2s-0.6,2.5-1.8,3.4l2.3,5.4h-4.1
	l-1.9-4.3v-3.4h0.3c0.8,0,1.2-0.4,1.2-1.1c0-0.6-0.5-0.9-1.4-0.9h-0.7V13.5z"/>
<path class="st1" d="M92.4,23.1v-8.6c0-1.5,0.4-2.7,1.3-3.6c0.9-0.9,2.1-1.4,3.6-1.4s2.6,0.4,3.4,1.3c0.8,0.9,1.2,2.1,1.2,3.8V23H98
	v-8.4c0-0.8-0.3-1.2-0.9-1.2s-0.8,0.4-0.8,1.2V23h-3.9V23.1z"/>
<path class="st1" d="M104.1,23.1v-8.6c0-1.5,0.4-2.7,1.3-3.6c0.9-0.9,2.1-1.4,3.6-1.4s2.6,0.4,3.4,1.3c0.8,0.9,1.2,2.1,1.2,3.8V23
	h-3.9v-8.4c0-0.8-0.3-1.2-0.9-1.2s-0.8,0.4-0.8,1.2V23h-3.9V23.1z"/>
<path class="st1" d="M123,15.1V18h-2.6c-0.3,0-0.6,0.1-0.7,0.2s-0.2,0.3-0.2,0.5c0,0.3,0.1,0.5,0.2,0.5c0.1,0.1,0.5,0.1,0.9,0.1h2.6
	v3.8h-3.1c-1.5,0-2.6-0.3-3.3-1c-0.8-0.7-1.2-1.7-1.2-3v-5.2c0-1.3,0.4-2.2,1.1-2.9c0.7-0.7,1.7-1,3.1-1h3.4v3.8h-2.5
	c-0.7,0-1,0.2-1,0.7c0,0.3,0.1,0.4,0.2,0.5c0.2,0.1,0.4,0.1,0.9,0.1H123z"/>
<path class="st1" d="M129.5,13.5v9.7h-3.9V9.9h5c1.5,0,2.7,0.4,3.6,1.1c0.9,0.9,1.4,1.9,1.4,3.2s-0.6,2.5-1.8,3.4l2.3,5.4H132
	l-1.9-4.3v-3.4h0.3c0.8,0,1.2-0.4,1.2-1.1c0-0.6-0.5-0.9-1.4-0.9h-0.7V13.5z"/>
<g>
	<g>
		<g>
			<path class="st1" d="M17.7,14.8v3.5c-3.1,1.5-5.4,3.5-5.6,3.7C12.1,21.9,13.5,16.7,17.7,14.8z"/>
			<path class="st1" d="M18.8,17.8L18.8,17.8C18.9,17.8,18.9,17.8,18.8,17.8L18.8,17.8z"/>
			<path class="st1" d="M26,17.1c-1.4-0.4-2.9-0.4-4.3-0.1c0-0.1,0-0.2,0-0.3c0-0.7-0.6-1-1.6-1h-1.2v-1.2c1.2-0.3,2.5-0.3,4.1,0.1
				C23,14.5,26,17.1,26,17.1z"/>
		</g>
		<path class="st0" d="M27.4,21.6l-15.9,0.8l-4.6-16L5.2,6.9c0.8,2.3,2.7,9.9,2.7,9.9L4.4,7.2L2.5,7.7c0.2,0.7,4.6,14.8,7.3,17.1
			c1.4,1.1,17.3,0,18.2,0L27.4,21.6z"/>
		<path class="st1" d="M12.2,22.2c0,0,2.6-1.6,5.5-3v2.3c-1,0.1-1.8,0.2-2.1,0.3C14.6,21.9,12.2,22.2,12.2,22.2z"/>
		<path class="st1" d="M27.5,20.2c0,0-0.4,0-0.9,0.1c-0.9,0.1-2.5,0.3-4.2,0.5c-1.2,0.1-2.4,0.3-3.5,0.4v-2.6
			c0.6-0.3,1.3-0.5,1.9-0.7c1.7-0.5,3.6-0.5,3.6-0.5l1.5,1.4c-1.9,0.4-4.9,1.1-5,1.2l5.7-0.6l0.2,0.2L27.5,20.2z"/>
	</g>
	<path d="M11.6,26.1c0.1,0,0.1,0,0.2-0.1c0.2-0.1,0.3-0.1,0.3-0.1l17.2,0.2v-1l-18-0.2c0,0-0.4,0-0.8-0.2c-0.4-0.2-0.9-0.5-1.3-1.3
		c0,0,0,0,0-0.1l0,0l0,0L2.8,7.2L1.9,7.6l4.7,12.5l0,0L7.8,23c0,0-0.4,1.9,1.1,2.9c0.8,0.6,1.8,0.5,2.4,0.3
		C11.4,26.2,11.5,26.2,11.6,26.1L11.6,26.1z"/>
</g>
</svg>
